<svg width="343" height="342" viewBox="0 0 343 342" fill="none" xmlns="http://www.w3.org/2000/svg">
<circle cx="94.3604" cy="167.688" r="83.0628" transform="rotate(90 94.3604 167.688)" stroke="white" stroke-width="0.711458"/>
<circle cx="170.641" cy="200.961" r="13.2331" transform="rotate(90 170.641 200.961)" fill="#D4EDCB"/>
<circle cx="124.325" cy="243.968" r="13.2331" transform="rotate(90 124.325 243.968)" fill="#DAC3A1"/>
<circle cx="13.2331" cy="13.2331" r="13.2331" transform="matrix(0 -1 -1 0 126.97 116.271)" fill="#D85E76"/>
<path d="M133.161 295.901C202.187 295.901 258.143 239.944 258.143 170.918C258.143 101.892 202.187 45.9353 133.161 45.9353C64.1346 45.9353 8.17796 101.892 8.17796 170.918C8.17796 239.944 64.1346 295.901 133.161 295.901Z" stroke="white" stroke-width="0.711458"/>
<circle cx="13.2331" cy="13.2331" r="13.2331" transform="matrix(-0.899611 0.436692 0.436692 0.899611 77.5776 260.242)" fill="#B3B694"/>
<circle cx="13.2331" cy="13.2331" r="13.2331" transform="matrix(-1 0 0 1 84.8647 48.5146)" fill="#FF8C72"/>
<circle cx="237.045" cy="238.41" r="13.2331" transform="rotate(180 237.045 238.41)" fill="#FF7874"/>
<circle cx="172.25" cy="171.145" r="165.77" stroke="white" stroke-width="0.711458"/>
<circle cx="227.549" cy="311.895" r="13.2331" transform="rotate(25.893 227.549 311.895)" fill="#EBA6BB"/>
<circle cx="297.867" cy="86.4519" r="13.2331" fill="#DDD7C1"/>
<circle cx="13.2331" cy="13.2331" r="13.2331" transform="matrix(-1 0 0 1 31.8799 95.7178)" fill="#D4A0B9"/>
<circle cx="55.0835" cy="169.401" r="41.1433" stroke="white" stroke-width="0.711458"/>
<circle cx="22.2033" cy="137.274" r="13.2331" fill="#FF3E3E"/>
<circle cx="53.4021" cy="127.457" r="13.2331" fill="#FFC556"/>
<circle cx="93.1306" cy="168.117" r="13.2331" fill="#FF5C00"/>
<circle cx="82.5344" cy="137.158" r="13.2331" fill="#9AF2F2"/>
<circle cx="13.2331" cy="13.2331" r="13.2331" transform="matrix(1 0 0 -1 70.8672 210.27)" fill="#FF427A"/>
<circle cx="13.2331" cy="13.2331" r="13.2331" transform="matrix(1 0 0 -1 40.1689 221.155)" fill="#A9A9A9"/>
<circle cx="13.2331" cy="13.2331" r="13.2331" transform="matrix(1 0 0 -1 8.97021 210.27)" fill="#909747"/>
<circle cx="13.2331" cy="13.2331" r="13.2331" transform="matrix(1 0 0 -1 0.0771484 181.208)" fill="#7C7BC8"/>
</svg>
