<svg width="1920" height="1076" viewBox="0 0 1920 1076" fill="none" xmlns="http://www.w3.org/2000/svg">
<g clip-path="url(#clip0_1813_12601)">
<mask id="mask0_1813_12601" style="mask-type:luminance" maskUnits="userSpaceOnUse" x="0" y="0" width="1920" height="1076">
<path d="M1920 0H0V1075.21H1920V0Z" fill="white"/>
</mask>
<g mask="url(#mask0_1813_12601)">
<mask id="mask1_1813_12601" style="mask-type:luminance" maskUnits="userSpaceOnUse" x="240" y="0" width="1680" height="1075">
<path d="M240.5 0.514648H1919.5V1073.74H240.5V0.514648Z" fill="white" stroke="white"/>
</mask>
<g mask="url(#mask1_1813_12601)">
<path d="M240 1073.74H239V0.514648H241V1073.74H240Z" fill="white" stroke="white"/>
</g>
<path d="M120.396 0.349609L120.397 951.532" stroke="white" stroke-width="1.5"/>
<path d="M0.5 1073.73V953.5H959.5V1073.73H0.5Z" fill="white" stroke="white"/>
<mask id="path-6-inside-1_1813_12601" fill="white">
<path d="M36.7905 1014.08C34.3305 1014.08 32.2605 1013.25 30.5805 1011.58C28.9005 1009.91 28.0605 1007.83 28.0605 1005.33C28.0605 1002.76 28.9005 1000.71 30.5805 999.161C32.2605 997.552 34.3305 996.748 36.7905 996.748C39.2505 996.748 41.3205 997.552 43.0005 999.161C44.6805 1000.71 45.5205 1002.76 45.5205 1005.33C45.5205 1007.83 44.6805 1009.91 43.0005 1011.58C41.3205 1013.25 39.2505 1014.08 36.7905 1014.08ZM36.7905 1046.16C34.3305 1046.16 32.2605 1045.33 30.5805 1043.66C28.9005 1041.99 28.0605 1039.91 28.0605 1037.4C28.0605 1034.84 28.9005 1032.79 30.5805 1031.24C32.2605 1029.63 34.3305 1028.83 36.7905 1028.83C39.2505 1028.83 41.3205 1029.63 43.0005 1031.24C44.6805 1032.79 45.5205 1034.84 45.5205 1037.4C45.5205 1039.91 44.6805 1041.99 43.0005 1043.66C41.3205 1045.33 39.2505 1046.16 36.7905 1046.16ZM95.5352 1012.83C99.3752 1013.96 102.316 1015.81 104.356 1018.37C106.396 1020.93 107.416 1024.09 107.416 1027.84C107.416 1033.38 105.286 1037.7 101.026 1040.8C96.8253 1043.9 90.7952 1045.45 82.9352 1045.45H51.8852V982.894H81.2253C88.5453 982.894 94.2452 984.293 98.3252 987.093C102.406 989.893 104.446 993.889 104.446 999.071C104.446 1002.17 103.666 1004.91 102.106 1007.29C100.546 1009.61 98.3552 1011.46 95.5352 1012.83ZM66.3753 1008.81H79.9652C83.1452 1008.81 85.5453 1008.19 87.1653 1006.93C88.7853 1005.62 89.5953 1003.72 89.5953 1001.22C89.5953 998.773 88.7552 996.897 87.0752 995.587C85.4552 994.276 83.0852 993.621 79.9652 993.621H66.3753V1008.81ZM82.3952 1034.72C89.2352 1034.72 92.6553 1032.04 92.6553 1026.68C92.6553 1021.5 89.2352 1018.91 82.3952 1018.91H66.3753V1034.72H82.3952ZM144.956 1003.45C152.636 1003.45 158.516 1005.15 162.596 1008.54C166.736 1011.94 168.806 1016.97 168.806 1023.64C168.806 1030.73 166.526 1036.15 161.966 1039.91C157.466 1043.6 151.106 1045.45 142.886 1045.45H114.446V982.894H128.936V1003.45H144.956ZM142.076 1034.72C145.856 1034.72 148.796 1033.8 150.896 1031.95C153.056 1030.11 154.136 1027.43 154.136 1023.91C154.136 1017.42 150.116 1014.17 142.076 1014.17H128.936V1034.72H142.076ZM176.816 982.894H191.306V1045.45H176.816V982.894ZM202.495 982.894H253.345V994.425H216.985V1007.29H234.445C242.065 1007.29 247.855 1008.87 251.815 1012.03C255.835 1015.18 257.845 1019.74 257.845 1025.7C257.845 1031.95 255.625 1036.81 251.185 1040.26C246.745 1043.72 240.475 1045.45 232.375 1045.45H202.495V982.894ZM231.565 1034.72C235.285 1034.72 238.135 1034.01 240.115 1032.58C242.095 1031.09 243.085 1028.94 243.085 1026.15C243.085 1020.66 239.245 1017.92 231.565 1017.92H216.985V1034.72H231.565ZM313.22 1033.83V1045.45H264.44V982.894H312.05V994.514H278.93V1008.1H308.18V1019.35H278.93V1033.83H313.22ZM347.767 982.894C353.347 982.894 358.177 983.817 362.257 985.663C366.397 987.51 369.577 990.131 371.797 993.531C374.017 996.927 375.127 1000.95 375.127 1005.59C375.127 1010.18 374.017 1014.2 371.797 1017.66C369.577 1021.05 366.397 1023.67 362.257 1025.52C358.177 1027.31 353.347 1028.2 347.767 1028.2H335.077V1045.45H320.497V982.894H347.767ZM346.957 1016.41C351.337 1016.41 354.667 1015.48 356.947 1013.64C359.227 1011.73 360.367 1009.05 360.367 1005.59C360.367 1002.08 359.227 999.399 356.947 997.552C354.667 995.646 351.337 994.693 346.957 994.693H335.077V1016.41H346.957ZM380.245 982.894H394.735V1023.64L424.795 982.894H438.475V1045.45H424.075V1004.79L394.015 1045.45H380.245V982.894ZM490.809 981.821C497.049 981.821 502.629 983.221 507.549 986.021C512.529 988.761 516.429 992.603 519.249 997.552C522.069 1002.44 523.479 1007.98 523.479 1014.17C523.479 1020.37 522.069 1025.94 519.249 1030.88C516.429 1035.77 512.529 1039.61 507.549 1042.41C502.629 1045.15 497.049 1046.52 490.809 1046.52C485.229 1046.52 480.189 1045.56 475.689 1043.66C471.249 1041.75 467.529 1038.98 464.529 1035.35L473.799 1026.77C478.239 1031.71 483.669 1034.19 490.089 1034.19C494.709 1034.19 498.609 1032.85 501.789 1030.17C505.029 1027.49 507.129 1023.88 508.089 1019.35H482.529V1008.27H507.909C506.889 1003.99 504.789 1000.56 501.609 997.999C498.429 995.438 494.589 994.157 490.089 994.157C483.669 994.157 478.239 996.629 473.799 1001.57L464.529 992.995C467.529 989.357 471.249 986.587 475.689 984.681C480.189 982.774 485.229 981.821 490.809 981.821ZM587.727 1045.45L587.637 1008.01L569.097 1038.83H562.617L544.077 1008.72V1045.45H530.397V982.894H542.457L566.037 1021.77L589.257 982.894H601.317L601.407 1045.45H587.727ZM642.618 1046.52C636.078 1046.52 630.168 1045.12 624.888 1042.32C619.668 1039.52 615.558 1035.68 612.558 1030.79C609.618 1025.85 608.148 1020.31 608.148 1014.17C608.148 1008.04 609.618 1002.53 612.558 997.642C615.558 992.693 619.668 988.821 624.888 986.021C630.168 983.221 636.078 981.821 642.618 981.821C649.158 981.821 655.038 983.221 660.258 986.021C665.478 988.821 669.588 992.693 672.588 997.642C675.588 1002.53 677.088 1008.04 677.088 1014.17C677.088 1020.31 675.588 1025.85 672.588 1030.79C669.588 1035.68 665.478 1039.52 660.258 1042.32C655.038 1045.12 649.158 1046.52 642.618 1046.52ZM642.618 1034.19C646.338 1034.19 649.698 1033.35 652.698 1031.69C655.698 1029.96 658.038 1027.57 659.718 1024.54C661.458 1021.5 662.328 1018.04 662.328 1014.17C662.328 1010.3 661.458 1006.85 659.718 1003.81C658.038 1000.77 655.698 998.416 652.698 996.748C649.698 995.021 646.338 994.157 642.618 994.157C638.898 994.157 635.538 995.021 632.538 996.748C629.538 998.416 627.168 1000.77 625.428 1003.81C623.748 1006.85 622.908 1010.3 622.908 1014.17C622.908 1018.04 623.748 1021.5 625.428 1024.54C627.168 1027.57 629.538 1029.96 632.538 1031.69C635.538 1033.35 638.898 1034.19 642.618 1034.19ZM749.879 1033.65V1058.67H736.469V1045.45H683.819V982.894H698.309V1033.65H726.389V982.894H740.879V1033.65H749.879ZM754.993 982.894H769.483V1023.64L799.543 982.894H813.223V1045.45H798.823V1004.79L768.763 1045.45H754.993V982.894ZM880.029 981.821C886.329 981.821 891.999 983.221 897.039 986.021C902.139 988.821 906.129 992.693 909.009 997.642C911.889 1002.53 913.329 1008.04 913.329 1014.17C913.329 1020.31 911.889 1025.85 909.009 1030.79C906.129 1035.68 902.139 1039.52 897.039 1042.32C891.999 1045.12 886.329 1046.52 880.029 1046.52C874.389 1046.52 869.229 1045.42 864.549 1043.21C859.869 1040.95 855.999 1037.82 852.939 1033.83C849.939 1029.78 848.019 1025.16 847.179 1019.98H838.899V1045.45H824.409V982.894H838.899V1007.47H847.359C848.319 1002.47 850.299 998.029 853.299 994.157C856.359 990.22 860.199 987.182 864.819 985.038C869.439 982.894 874.509 981.821 880.029 981.821ZM880.029 1034.19C883.509 1034.19 886.659 1033.35 889.479 1031.69C892.299 1030.02 894.519 1027.66 896.139 1024.63C897.759 1021.59 898.569 1018.1 898.569 1014.17C898.569 1010.24 897.759 1006.76 896.139 1003.72C894.519 1000.68 892.299 998.327 889.479 996.659C886.659 994.991 883.509 994.157 880.029 994.157C876.549 994.157 873.399 994.991 870.579 996.659C867.759 998.327 865.539 1000.68 863.919 1003.72C862.299 1006.76 861.489 1010.24 861.489 1014.17C861.489 1018.1 862.299 1021.59 863.919 1024.63C865.539 1027.66 867.759 1030.02 870.579 1031.69C873.399 1033.35 876.549 1034.19 880.029 1034.19ZM924.152 1014.08C921.692 1014.08 919.622 1013.25 917.942 1011.58C916.262 1009.91 915.422 1007.83 915.422 1005.33C915.422 1002.76 916.262 1000.71 917.942 999.161C919.622 997.552 921.692 996.748 924.152 996.748C926.612 996.748 928.682 997.552 930.362 999.161C932.042 1000.71 932.882 1002.76 932.882 1005.33C932.882 1007.83 932.042 1009.91 930.362 1011.58C928.682 1013.25 926.612 1014.08 924.152 1014.08ZM924.152 1046.16C921.692 1046.16 919.622 1045.33 917.942 1043.66C916.262 1041.99 915.422 1039.91 915.422 1037.4C915.422 1034.84 916.262 1032.79 917.942 1031.24C919.622 1029.63 921.692 1028.83 924.152 1028.83C926.612 1028.83 928.682 1029.63 930.362 1031.24C932.042 1032.79 932.882 1034.84 932.882 1037.4C932.882 1039.91 932.042 1041.99 930.362 1043.66C928.682 1045.33 926.612 1046.16 924.152 1046.16Z"/>
</mask>
<path d="M36.7905 1014.08C34.3305 1014.08 32.2605 1013.25 30.5805 1011.58C28.9005 1009.91 28.0605 1007.83 28.0605 1005.33C28.0605 1002.76 28.9005 1000.71 30.5805 999.161C32.2605 997.552 34.3305 996.748 36.7905 996.748C39.2505 996.748 41.3205 997.552 43.0005 999.161C44.6805 1000.71 45.5205 1002.76 45.5205 1005.33C45.5205 1007.83 44.6805 1009.91 43.0005 1011.58C41.3205 1013.25 39.2505 1014.08 36.7905 1014.08ZM36.7905 1046.16C34.3305 1046.16 32.2605 1045.33 30.5805 1043.66C28.9005 1041.99 28.0605 1039.91 28.0605 1037.4C28.0605 1034.84 28.9005 1032.79 30.5805 1031.24C32.2605 1029.63 34.3305 1028.83 36.7905 1028.83C39.2505 1028.83 41.3205 1029.63 43.0005 1031.24C44.6805 1032.79 45.5205 1034.84 45.5205 1037.4C45.5205 1039.91 44.6805 1041.99 43.0005 1043.66C41.3205 1045.33 39.2505 1046.16 36.7905 1046.16ZM95.5352 1012.83C99.3752 1013.96 102.316 1015.81 104.356 1018.37C106.396 1020.93 107.416 1024.09 107.416 1027.84C107.416 1033.38 105.286 1037.7 101.026 1040.8C96.8253 1043.9 90.7952 1045.45 82.9352 1045.45H51.8852V982.894H81.2253C88.5453 982.894 94.2452 984.293 98.3252 987.093C102.406 989.893 104.446 993.889 104.446 999.071C104.446 1002.17 103.666 1004.91 102.106 1007.29C100.546 1009.61 98.3552 1011.46 95.5352 1012.83ZM66.3753 1008.81H79.9652C83.1452 1008.81 85.5453 1008.19 87.1653 1006.93C88.7853 1005.62 89.5953 1003.72 89.5953 1001.22C89.5953 998.773 88.7552 996.897 87.0752 995.587C85.4552 994.276 83.0852 993.621 79.9652 993.621H66.3753V1008.81ZM82.3952 1034.72C89.2352 1034.72 92.6553 1032.04 92.6553 1026.68C92.6553 1021.5 89.2352 1018.91 82.3952 1018.91H66.3753V1034.72H82.3952ZM144.956 1003.45C152.636 1003.45 158.516 1005.15 162.596 1008.54C166.736 1011.94 168.806 1016.97 168.806 1023.64C168.806 1030.73 166.526 1036.15 161.966 1039.91C157.466 1043.6 151.106 1045.45 142.886 1045.45H114.446V982.894H128.936V1003.45H144.956ZM142.076 1034.72C145.856 1034.72 148.796 1033.8 150.896 1031.95C153.056 1030.11 154.136 1027.43 154.136 1023.91C154.136 1017.42 150.116 1014.17 142.076 1014.17H128.936V1034.72H142.076ZM176.816 982.894H191.306V1045.45H176.816V982.894ZM202.495 982.894H253.345V994.425H216.985V1007.29H234.445C242.065 1007.29 247.855 1008.87 251.815 1012.03C255.835 1015.18 257.845 1019.74 257.845 1025.7C257.845 1031.95 255.625 1036.81 251.185 1040.26C246.745 1043.72 240.475 1045.45 232.375 1045.45H202.495V982.894ZM231.565 1034.72C235.285 1034.72 238.135 1034.01 240.115 1032.58C242.095 1031.09 243.085 1028.94 243.085 1026.15C243.085 1020.66 239.245 1017.92 231.565 1017.92H216.985V1034.72H231.565ZM313.22 1033.83V1045.45H264.44V982.894H312.05V994.514H278.93V1008.1H308.18V1019.35H278.93V1033.83H313.22ZM347.767 982.894C353.347 982.894 358.177 983.817 362.257 985.663C366.397 987.51 369.577 990.131 371.797 993.531C374.017 996.927 375.127 1000.95 375.127 1005.59C375.127 1010.18 374.017 1014.2 371.797 1017.66C369.577 1021.05 366.397 1023.67 362.257 1025.52C358.177 1027.31 353.347 1028.2 347.767 1028.2H335.077V1045.45H320.497V982.894H347.767ZM346.957 1016.41C351.337 1016.41 354.667 1015.48 356.947 1013.64C359.227 1011.73 360.367 1009.05 360.367 1005.59C360.367 1002.08 359.227 999.399 356.947 997.552C354.667 995.646 351.337 994.693 346.957 994.693H335.077V1016.41H346.957ZM380.245 982.894H394.735V1023.64L424.795 982.894H438.475V1045.45H424.075V1004.79L394.015 1045.45H380.245V982.894ZM490.809 981.821C497.049 981.821 502.629 983.221 507.549 986.021C512.529 988.761 516.429 992.603 519.249 997.552C522.069 1002.44 523.479 1007.98 523.479 1014.17C523.479 1020.37 522.069 1025.94 519.249 1030.88C516.429 1035.77 512.529 1039.61 507.549 1042.41C502.629 1045.15 497.049 1046.52 490.809 1046.52C485.229 1046.52 480.189 1045.56 475.689 1043.66C471.249 1041.75 467.529 1038.98 464.529 1035.35L473.799 1026.77C478.239 1031.71 483.669 1034.19 490.089 1034.19C494.709 1034.19 498.609 1032.85 501.789 1030.17C505.029 1027.49 507.129 1023.88 508.089 1019.35H482.529V1008.27H507.909C506.889 1003.99 504.789 1000.56 501.609 997.999C498.429 995.438 494.589 994.157 490.089 994.157C483.669 994.157 478.239 996.629 473.799 1001.57L464.529 992.995C467.529 989.357 471.249 986.587 475.689 984.681C480.189 982.774 485.229 981.821 490.809 981.821ZM587.727 1045.45L587.637 1008.01L569.097 1038.83H562.617L544.077 1008.72V1045.45H530.397V982.894H542.457L566.037 1021.77L589.257 982.894H601.317L601.407 1045.45H587.727ZM642.618 1046.52C636.078 1046.52 630.168 1045.12 624.888 1042.32C619.668 1039.52 615.558 1035.68 612.558 1030.79C609.618 1025.85 608.148 1020.31 608.148 1014.17C608.148 1008.04 609.618 1002.53 612.558 997.642C615.558 992.693 619.668 988.821 624.888 986.021C630.168 983.221 636.078 981.821 642.618 981.821C649.158 981.821 655.038 983.221 660.258 986.021C665.478 988.821 669.588 992.693 672.588 997.642C675.588 1002.53 677.088 1008.04 677.088 1014.17C677.088 1020.31 675.588 1025.85 672.588 1030.79C669.588 1035.68 665.478 1039.52 660.258 1042.32C655.038 1045.12 649.158 1046.52 642.618 1046.52ZM642.618 1034.19C646.338 1034.19 649.698 1033.35 652.698 1031.69C655.698 1029.96 658.038 1027.57 659.718 1024.54C661.458 1021.5 662.328 1018.04 662.328 1014.17C662.328 1010.3 661.458 1006.85 659.718 1003.81C658.038 1000.77 655.698 998.416 652.698 996.748C649.698 995.021 646.338 994.157 642.618 994.157C638.898 994.157 635.538 995.021 632.538 996.748C629.538 998.416 627.168 1000.77 625.428 1003.81C623.748 1006.85 622.908 1010.3 622.908 1014.17C622.908 1018.04 623.748 1021.5 625.428 1024.54C627.168 1027.57 629.538 1029.96 632.538 1031.69C635.538 1033.35 638.898 1034.19 642.618 1034.19ZM749.879 1033.65V1058.67H736.469V1045.45H683.819V982.894H698.309V1033.65H726.389V982.894H740.879V1033.65H749.879ZM754.993 982.894H769.483V1023.64L799.543 982.894H813.223V1045.45H798.823V1004.79L768.763 1045.45H754.993V982.894ZM880.029 981.821C886.329 981.821 891.999 983.221 897.039 986.021C902.139 988.821 906.129 992.693 909.009 997.642C911.889 1002.53 913.329 1008.04 913.329 1014.17C913.329 1020.31 911.889 1025.85 909.009 1030.79C906.129 1035.68 902.139 1039.52 897.039 1042.32C891.999 1045.12 886.329 1046.52 880.029 1046.52C874.389 1046.52 869.229 1045.42 864.549 1043.21C859.869 1040.95 855.999 1037.82 852.939 1033.83C849.939 1029.78 848.019 1025.16 847.179 1019.98H838.899V1045.45H824.409V982.894H838.899V1007.47H847.359C848.319 1002.47 850.299 998.029 853.299 994.157C856.359 990.22 860.199 987.182 864.819 985.038C869.439 982.894 874.509 981.821 880.029 981.821ZM880.029 1034.19C883.509 1034.19 886.659 1033.35 889.479 1031.69C892.299 1030.02 894.519 1027.66 896.139 1024.63C897.759 1021.59 898.569 1018.1 898.569 1014.17C898.569 1010.24 897.759 1006.76 896.139 1003.72C894.519 1000.68 892.299 998.327 889.479 996.659C886.659 994.991 883.509 994.157 880.029 994.157C876.549 994.157 873.399 994.991 870.579 996.659C867.759 998.327 865.539 1000.68 863.919 1003.72C862.299 1006.76 861.489 1010.24 861.489 1014.17C861.489 1018.1 862.299 1021.59 863.919 1024.63C865.539 1027.66 867.759 1030.02 870.579 1031.69C873.399 1033.35 876.549 1034.19 880.029 1034.19ZM924.152 1014.08C921.692 1014.08 919.622 1013.25 917.942 1011.58C916.262 1009.91 915.422 1007.83 915.422 1005.33C915.422 1002.76 916.262 1000.71 917.942 999.161C919.622 997.552 921.692 996.748 924.152 996.748C926.612 996.748 928.682 997.552 930.362 999.161C932.042 1000.71 932.882 1002.76 932.882 1005.33C932.882 1007.83 932.042 1009.91 930.362 1011.58C928.682 1013.25 926.612 1014.08 924.152 1014.08ZM924.152 1046.16C921.692 1046.16 919.622 1045.33 917.942 1043.66C916.262 1041.99 915.422 1039.91 915.422 1037.4C915.422 1034.84 916.262 1032.79 917.942 1031.24C919.622 1029.63 921.692 1028.83 924.152 1028.83C926.612 1028.83 928.682 1029.63 930.362 1031.24C932.042 1032.79 932.882 1034.84 932.882 1037.4C932.882 1039.91 932.042 1041.99 930.362 1043.66C928.682 1045.33 926.612 1046.16 924.152 1046.16Z" fill="#212121" stroke="white" stroke-width="2" mask="url(#path-6-inside-1_1813_12601)"/>
</g>
</g>
<defs>
<clipPath id="clip0_1813_12601">
<rect width="1920" height="1075.21" fill="white"/>
</clipPath>
</defs>
</svg>
