<svg width="1920" height="1083" viewBox="0 0 1920 1083" fill="none" xmlns="http://www.w3.org/2000/svg">
<mask id="path-1-inside-1_1253_106" fill="white">
<path d="M240 0.0151367H1920V1082.02H240V0.0151367Z"/>
</mask>
<path d="M240 1082.02H238.5V1083.52H240V1082.02ZM1920 1080.52H240V1083.52H1920V1080.52ZM241.5 1082.02V0.0151367H238.5V1082.02H241.5Z" fill="white" mask="url(#path-1-inside-1_1253_106)"/>
<line y1="-0.75" x2="958.073" y2="-0.75" transform="matrix(4.30767e-08 1 1 -4.43554e-08 121.146 0.352539)" stroke="white" stroke-width="1.5"/>
<ellipse cx="20" cy="20.0076" rx="20" ry="20.0076" transform="matrix(-1 0 0 1 140 920)" fill="#FF3E3E"/>
<ellipse cx="20" cy="20.0076" rx="20" ry="20.0076" transform="matrix(-1 0 0 1 140 262.312)" fill="#FF5C00"/>
<ellipse cx="20" cy="20.0076" rx="20" ry="20.0076" transform="matrix(-1 0 0 1 140 131.164)" fill="#9AF2F2"/>
<ellipse cx="120" cy="415.779" rx="20" ry="20.0076" transform="rotate(180 120 415.779)" fill="#FF427A"/>
<ellipse cx="120" cy="546.928" rx="20" ry="20.0076" transform="rotate(180 120 546.928)" fill="#A9A9A9"/>
<ellipse cx="120" cy="678.076" rx="20" ry="20.0076" transform="rotate(180 120 678.076)" fill="#909747"/>
<ellipse cx="120" cy="809.225" rx="20" ry="20.0076" transform="rotate(180 120 809.225)" fill="#7C7BC8"/>
<ellipse cx="20" cy="20.0076" rx="20" ry="20.0076" transform="matrix(-1 0 0 1 140 0.0151367)" fill="#FFC556"/>
<rect width="960" height="122" transform="translate(0 960.015)" fill="white"/>
<path d="M36.79 1021.43C34.33 1021.43 32.26 1020.59 30.58 1018.91C28.9 1017.23 28.06 1015.13 28.06 1012.61C28.06 1010.03 28.9 1007.96 30.58 1006.4C32.26 1004.78 34.33 1003.97 36.79 1003.97C39.25 1003.97 41.32 1004.78 43 1006.4C44.68 1007.96 45.52 1010.03 45.52 1012.61C45.52 1015.13 44.68 1017.23 43 1018.91C41.32 1020.59 39.25 1021.43 36.79 1021.43ZM36.79 1053.74C34.33 1053.74 32.26 1052.9 30.58 1051.22C28.9 1049.54 28.06 1047.44 28.06 1044.92C28.06 1042.34 28.9 1040.27 30.58 1038.71C32.26 1037.09 34.33 1036.28 36.79 1036.28C39.25 1036.28 41.32 1037.09 43 1038.71C44.68 1040.27 45.52 1042.34 45.52 1044.92C45.52 1047.44 44.68 1049.54 43 1051.22C41.32 1052.9 39.25 1053.74 36.79 1053.74ZM95.5347 1020.17C99.3747 1021.31 102.315 1023.17 104.355 1025.75C106.395 1028.33 107.415 1031.51 107.415 1035.29C107.415 1040.87 105.285 1045.22 101.025 1048.34C96.8247 1051.46 90.7947 1053.02 82.9347 1053.02H51.8847V990.015H81.2247C88.5447 990.015 94.2447 991.425 98.3247 994.245C102.405 997.065 104.445 1001.09 104.445 1006.31C104.445 1009.43 103.665 1012.19 102.105 1014.59C100.545 1016.93 98.3547 1018.79 95.5347 1020.17ZM66.3747 1016.12H79.9647C83.1447 1016.12 85.5447 1015.49 87.1647 1014.23C88.7847 1012.91 89.5947 1010.99 89.5947 1008.47C89.5947 1006.01 88.7547 1004.12 87.0747 1002.8C85.4547 1001.48 83.0847 1000.82 79.9647 1000.82H66.3747V1016.12ZM82.3947 1042.22C89.2347 1042.22 92.6547 1039.52 92.6547 1034.12C92.6547 1028.9 89.2347 1026.29 82.3947 1026.29H66.3747V1042.22H82.3947ZM144.955 1010.72C152.635 1010.72 158.515 1012.43 162.595 1015.85C166.735 1019.27 168.805 1024.34 168.805 1031.06C168.805 1038.2 166.525 1043.66 161.965 1047.44C157.465 1051.16 151.105 1053.02 142.885 1053.02H114.445V990.015H128.935V1010.72H144.955ZM142.075 1042.22C145.855 1042.22 148.795 1041.29 150.895 1039.43C153.055 1037.57 154.135 1034.87 154.135 1031.33C154.135 1024.79 150.115 1021.52 142.075 1021.52H128.935V1042.22H142.075ZM176.815 990.015H191.305V1053.02H176.815V990.015ZM202.494 990.015H253.344V1001.63H216.984V1014.59H234.444C242.064 1014.59 247.854 1016.18 251.814 1019.36C255.834 1022.54 257.844 1027.13 257.844 1033.13C257.844 1039.43 255.624 1044.32 251.184 1047.8C246.744 1051.28 240.474 1053.02 232.374 1053.02H202.494V990.015ZM231.564 1042.22C235.284 1042.22 238.134 1041.5 240.114 1040.06C242.094 1038.56 243.084 1036.4 243.084 1033.58C243.084 1028.06 239.244 1025.3 231.564 1025.3H216.984V1042.22H231.564ZM313.219 1041.32V1053.02H264.439V990.015H312.049V1001.72H278.929V1015.4H308.179V1026.74H278.929V1041.32H313.219ZM347.766 990.015C353.346 990.015 358.176 990.945 362.256 992.805C366.396 994.665 369.576 997.305 371.796 1000.73C374.016 1004.15 375.126 1008.2 375.126 1012.88C375.126 1017.5 374.016 1021.55 371.796 1025.03C369.576 1028.45 366.396 1031.09 362.256 1032.95C358.176 1034.75 353.346 1035.65 347.766 1035.65H335.076V1053.02H320.496V990.015H347.766ZM346.956 1023.77C351.336 1023.77 354.666 1022.84 356.946 1020.98C359.226 1019.06 360.366 1016.36 360.366 1012.88C360.366 1009.34 359.226 1006.64 356.946 1004.78C354.666 1002.86 351.336 1001.9 346.956 1001.9H335.076V1023.77H346.956ZM380.244 990.015H394.734V1031.06L424.794 990.015H438.474V1053.02H424.074V1012.07L394.014 1053.02H380.244V990.015ZM490.808 988.935C497.048 988.935 502.628 990.345 507.548 993.165C512.528 995.925 516.428 999.795 519.248 1004.78C522.068 1009.7 523.478 1015.28 523.478 1021.52C523.478 1027.76 522.068 1033.37 519.248 1038.35C516.428 1043.27 512.528 1047.14 507.548 1049.96C502.628 1052.72 497.048 1054.1 490.808 1054.1C485.228 1054.1 480.188 1053.14 475.688 1051.22C471.248 1049.3 467.528 1046.51 464.528 1042.85L473.798 1034.21C478.238 1039.19 483.668 1041.68 490.088 1041.68C494.708 1041.68 498.608 1040.33 501.788 1037.63C505.028 1034.93 507.128 1031.3 508.088 1026.74H482.528V1015.58H507.908C506.888 1011.26 504.788 1007.81 501.608 1005.23C498.428 1002.65 494.588 1001.36 490.088 1001.36C483.668 1001.36 478.238 1003.85 473.798 1008.83L464.528 1000.19C467.528 996.525 471.248 993.735 475.688 991.815C480.188 989.895 485.228 988.935 490.808 988.935ZM587.726 1053.02L587.636 1015.31L569.096 1046.36H562.616L544.076 1016.03V1053.02H530.396V990.015H542.456L566.036 1029.17L589.256 990.015H601.316L601.406 1053.02H587.726ZM642.617 1054.1C636.077 1054.1 630.167 1052.69 624.887 1049.87C619.667 1047.05 615.557 1043.18 612.557 1038.26C609.617 1033.28 608.147 1027.7 608.147 1021.52C608.147 1015.34 609.617 1009.79 612.557 1004.87C615.557 999.885 619.667 995.985 624.887 993.165C630.167 990.345 636.077 988.935 642.617 988.935C649.157 988.935 655.037 990.345 660.257 993.165C665.477 995.985 669.587 999.885 672.587 1004.87C675.587 1009.79 677.087 1015.34 677.087 1021.52C677.087 1027.7 675.587 1033.28 672.587 1038.26C669.587 1043.18 665.477 1047.05 660.257 1049.87C655.037 1052.69 649.157 1054.1 642.617 1054.1ZM642.617 1041.68C646.337 1041.68 649.697 1040.84 652.697 1039.16C655.697 1037.42 658.037 1035.02 659.717 1031.96C661.457 1028.9 662.327 1025.42 662.327 1021.52C662.327 1017.62 661.457 1014.14 659.717 1011.08C658.037 1008.02 655.697 1005.65 652.697 1003.97C649.697 1002.23 646.337 1001.36 642.617 1001.36C638.897 1001.36 635.537 1002.23 632.537 1003.97C629.537 1005.65 627.167 1008.02 625.427 1011.08C623.747 1014.14 622.907 1017.62 622.907 1021.52C622.907 1025.42 623.747 1028.9 625.427 1031.96C627.167 1035.02 629.537 1037.42 632.537 1039.16C635.537 1040.84 638.897 1041.68 642.617 1041.68ZM749.878 1041.14V1066.34H736.468V1053.02H683.818V990.015H698.308V1041.14H726.388V990.015H740.878V1041.14H749.878ZM754.992 990.015H769.482V1031.06L799.542 990.015H813.222V1053.02H798.822V1012.07L768.762 1053.02H754.992V990.015ZM880.028 988.935C886.328 988.935 891.998 990.345 897.038 993.165C902.138 995.985 906.128 999.885 909.008 1004.87C911.888 1009.79 913.328 1015.34 913.328 1021.52C913.328 1027.7 911.888 1033.28 909.008 1038.26C906.128 1043.18 902.138 1047.05 897.038 1049.87C891.998 1052.69 886.328 1054.1 880.028 1054.1C874.388 1054.1 869.228 1052.99 864.548 1050.77C859.868 1048.49 855.998 1045.34 852.938 1041.32C849.938 1037.24 848.018 1032.59 847.178 1027.37H838.898V1053.02H824.408V990.015H838.898V1014.77H847.358C848.318 1009.73 850.298 1005.26 853.298 1001.36C856.358 997.395 860.198 994.335 864.818 992.175C869.438 990.015 874.508 988.935 880.028 988.935ZM880.028 1041.68C883.508 1041.68 886.658 1040.84 889.478 1039.16C892.298 1037.48 894.518 1035.11 896.138 1032.05C897.758 1028.99 898.568 1025.48 898.568 1021.52C898.568 1017.56 897.758 1014.05 896.138 1010.99C894.518 1007.93 892.298 1005.56 889.478 1003.88C886.658 1002.2 883.508 1001.36 880.028 1001.36C876.548 1001.36 873.398 1002.2 870.578 1003.88C867.758 1005.56 865.538 1007.93 863.918 1010.99C862.298 1014.05 861.488 1017.56 861.488 1021.52C861.488 1025.48 862.298 1028.99 863.918 1032.05C865.538 1035.11 867.758 1037.48 870.578 1039.16C873.398 1040.84 876.548 1041.68 880.028 1041.68ZM924.151 1021.43C921.691 1021.43 919.621 1020.59 917.941 1018.91C916.261 1017.23 915.421 1015.13 915.421 1012.61C915.421 1010.03 916.261 1007.96 917.941 1006.4C919.621 1004.78 921.691 1003.97 924.151 1003.97C926.611 1003.97 928.681 1004.78 930.361 1006.4C932.041 1007.96 932.881 1010.03 932.881 1012.61C932.881 1015.13 932.041 1017.23 930.361 1018.91C928.681 1020.59 926.611 1021.43 924.151 1021.43ZM924.151 1053.74C921.691 1053.74 919.621 1052.9 917.941 1051.22C916.261 1049.54 915.421 1047.44 915.421 1044.92C915.421 1042.34 916.261 1040.27 917.941 1038.71C919.621 1037.09 921.691 1036.28 924.151 1036.28C926.611 1036.28 928.681 1037.09 930.361 1038.71C932.041 1040.27 932.881 1042.34 932.881 1044.92C932.881 1047.44 932.041 1049.54 930.361 1051.22C928.681 1052.9 926.611 1053.74 924.151 1053.74Z" fill="#212121"/>
</svg>
